# xmcd CD database file
#
# Track frame offsets:
#	150
#	13396
#	28862
#	41196
#	56206
#	71589
#	97382
#
# Disc length: 1490 seconds
#
# Revision: 0
# Processed by: cddbd v1.5.2PL0 Copyright (c) Steve Scherf et al.
# Submitted via: CDex 1.51
#
DISCID=6d05d007
DTITLE=The European Highwaymen - A Live Tribute
DYEAR=2007
DGENRE=Country
TTITLE0=Potpurri
TTITLE1=Ring Of Fire
TTITLE2=Mam Tried
TTITLE3=Highwaymen
TTITLE4=Luckenback Texas
TTITLE5=Sunday Morning Coming Down
TTITLE6=The Race Is On
EXTD=YEAR: 2007
EXTT0=
EXTT1=
EXTT2=
EXTT3=
EXTT4=
EXTT5=
EXTT6=
PLAYORDER=
